# xmcd
#
# Track frame offsets: 
#        150
#        14620
#        26962
#        39922
#        52622
#        65767
#        79202
#        93215
#        107700
#        123172
#        137130
#        150980
#        165205
#        179667
#        195567
#        209547
#        222592
#        236090
#        250357
#        262405
#        276267
#        289740
#
# Disc length: 4037 seconds
#
# Revision: 1
# Processed by: cddbd v1.5.2PL0 Copyright (c) Steve Scherf et al.
# Submitted via: ExactAudioCopy v0.99pb4
#
DISCID=470fc316
DTITLE=Bo Carter - Complete Recorded Works Vol. 2
DYEAR=1931
DGENRE=Blues
TTITLE0=So Long, Baby, So Long
TTITLE1=The Law Gonna Step On You
TTITLE2=Pig Meat Is What I Crave
TTITLE3=Howling Tom Cat Blues
TTITLE4=Ants In My Pants
TTITLE5=Blue Runner Blues
TTITLE6=I've Got A Case Of Mashin' It
TTITLE7=You Don't Love Me No More
TTITLE8=What Kind Of Scent Is This
TTITLE9=Pretty Baby
TTITLE10=I Want You To Know
TTITLE11=Last Go Round
TTITLE12=I Keep On Spending My Change
TTITLE13=Baby, How Can It Be
TTITLE14=Bo Carter Special
TTITLE15=Beans
TTITLE16=Nobody's Business
TTITLE17=Queen Bee
TTITLE18=Tellin' You 'Bout It
TTITLE19=Please Don't Drive Me From Your Door
TTITLE20=Pin In Your Cushion
TTITLE21=Banana In The Fruit Basket
EXTD=DOCD-5079     5 June 1931 to 26 March 1934
EXTT0=
EXTT1=
EXTT2=
EXTT3=
EXTT4=
EXTT5=
EXTT6=
EXTT7=
EXTT8=
EXTT9=
EXTT10=
EXTT11=
EXTT12=
EXTT13=
EXTT14=
EXTT15=
EXTT16=
EXTT17=
EXTT18=
EXTT19=
EXTT20=
EXTT21=
PLAYORDER=
